<svg id="Ebene_1" data-name="Ebene 1" xmlns="http://www.w3.org/2000/svg" viewBox="0 0 350.63 348.45">
    <path class="cls-1"
        d="M415.48,189.66c-3.22-16.34-10.62-29.66-22-39.58h0c-12.31-10.68-27.55-15.8-45.34-15.23-6-28.31-18.16-50.36-36.28-65.56-19.95-16.76-46.27-24.47-78.22-22.94v.11c-41.14,1.85-72.18,24.39-92.33,67.06a74.29,74.29,0,0,0-42.34,15,81,81,0,0,0-26,35.38,88.91,88.91,0,0,0-5.66,44.15,79.18,79.18,0,0,0,18,41.75c14.21,17,40.09,26.81,76.94,29.22,7.76.54,17.31.8,28.54.8q10.47,0,22.85-.31c31.38-.64,49.68-1,54.4-1,5.39,0,16.15.16,32,.49,13.3.21,23.71.27,31,.16,23.08-.56,39.24-3.34,49.39-8.53,14.38-7.48,24.9-19.23,31.25-35A80.35,80.35,0,0,0,415.48,189.66Zm-89.89-23.84c17.49-5.62,33.17-4.27,46.64,4,14.63,8.82,20.77,22.49,18.79,41.8-1.23,12.1-6,21.38-14.11,27.58-7.11,5.46-17.76,9.13-31.64,10.92H247.73c-78.21,0-96.77-.25-98.54-.46-14.66-1.9-26.32-5.67-34.68-11.21-9.46-6.17-15.88-15.31-19.08-27.17-5.37-20.55-1.34-37.74,12.34-52.58,11-11.91,24.08-17.78,39.86-17.78a71.83,71.83,0,0,1,11.18.91l1.79.28.6-1.7c7.12-20,16.14-35.62,26.81-46.5h0c12.77-13.08,29.08-20.35,48.48-21.61,25.74-1.68,46.92,6.13,63,23.21s23.83,40,23.3,68.19l-.06,3Z"
        transform="translate(-66.57 -46.15)" />
    <path class="cls-1"
        d="M359.68,311.81c-2-7.62-9.16-11.95-16.11-9.94-67.9,18.28-135.47,18.28-203.37,0-6.95-2-14.14,2.32-16.11,9.94l-.7,2.72c-2,7.62,2.42,15.79,9.85,17.93q108.67,29.37,217.29,0c7.43-2.14,11.82-10.31,9.85-17.93Z"
        transform="translate(-66.57 -46.15)" />
    <path class="cls-1"
        d="M359.68,359.26c-2-7.62-9.16-11.95-16.11-9.94-67.9,18.28-135.47,18.28-203.37,0-6.95-2-14.14,2.32-16.11,9.94l-.7,2.72c-2,7.62,2.42,15.79,9.85,17.93q108.67,29.37,217.29,0c7.43-2.14,11.82-10.31,9.85-17.93Z"
        transform="translate(-66.57 -46.15)" />
    <path class="cls-1" d="M183.11,199a18.71,18.71,0,1,0,18.71,18.71A18.73,18.73,0,0,0,183.11,199Z"
        transform="translate(-66.57 -46.15)" />
    <path class="cls-1" d="M300.66,199a18.71,18.71,0,1,0,18.71,18.71A18.73,18.73,0,0,0,300.66,199Z"
        transform="translate(-66.57 -46.15)" />
</svg>